IKResults
version=1
nRows=12
nColumns=38
inDegrees=yes

Units are S.I. units (second, meters, Newtons, ...)
If the header above contains a line with 'inDegrees', this indicates whether rotational values are in degrees (yes) or radians (no).

endheader
time	sternoclavicular_r2	sternoclavicular_r3	unrotscap_r3	unrotscap_r2	acromioclavicular_r2	acromioclavicular_r3	acromioclavicular_r1	unrothum_r1	unrothum_r3	unrothum_r2	elv_angle	shoulder_elv	shoulder1_r2	shoulder_rot	elbow_flexion	pro_sup	deviation	flexion	proximal_distal_r1	proximal_distal_r3	cmc_flexion	cmc_abduction	mp_flexion	ip_flexion	2mcp_flexion	2mcp_abduction	2pm_flexion	2md_flexion	APLpt_tx	APLpt_ty	APLpt_tz	FPLpt_tx	FPLpt_ty	FPLpt_tz	FPLpt2_tx	FPLpt2_ty	FPLpt2_tz
      1.76000000	     -4.37432164	      1.85275619	     -1.85275619	      4.37432164	     -0.88571115	      7.15800597	      3.21747442	     -3.21747442	     -7.15800597	      0.88571115	     44.55728701	     18.07566873	    -44.55728701	     38.21150419	     90.12334135	     33.10061444	      0.27410038	     -0.21464496	     17.79019819	     -6.14912503	      3.36700001	     23.62246941	    -27.65299999	    -34.18400000	      0.30223018	      7.65299997	     26.93900001	     34.89800000	      0.00018103	      0.00007241	      0.00036206	      0.00023172	      0.00069515	      0.00039102	      0.00004241	     -0.00007788	     -0.00009345
      1.77000000	     -4.37416835	      1.85269126	     -1.85269126	      4.37416835	     -0.88568011	      7.15775513	      3.21736167	     -3.21736167	     -7.15775513	      0.88568011	     44.53373128	     18.07503531	    -44.53373128	     38.30592757	     90.02885943	     32.61974142	      0.27230403	     -0.21667234	     17.69658321	     -6.20720519	      3.36700001	     23.62064158	    -27.65299999	    -34.18400000	     -0.10146109	      7.65299997	     26.93900001	     34.89800000	      0.00018237	      0.00007295	      0.00036474	      0.00023343	      0.00070030	      0.00039392	      0.00004241	     -0.00007788	     -0.00009345
      1.78000000	     -4.36648088	      1.84943522	     -1.84943522	      4.36648088	     -0.88412356	      7.14517560	      3.21170726	     -3.21170726	     -7.14517560	      0.88412356	     44.51845773	     18.04326899	    -44.51845773	     38.25028552	     90.11865140	     33.13288110	      0.27885496	     -0.21407876	     18.03661495	     -6.13290472	      3.36700001	     23.60325563	    -27.65299999	    -34.18400000	      0.46767220	      7.65299997	     26.93900001	     34.89800000	      0.00018065	      0.00007226	      0.00036130	      0.00023124	      0.00069371	      0.00039021	      0.00004241	     -0.00007788	     -0.00009345
      1.79000000	     -4.37918482	      1.85481600	     -1.85481600	      4.37918482	     -0.88669585	      7.16596393	      3.22105147	     -3.22105147	     -7.16596393	      0.88669585	     44.37899368	     18.09576449	    -44.37899368	     38.40437911	     90.16742322	     32.77914109	      0.27956094	     -0.21645868	     18.07305045	     -6.20108453	      3.36700001	     23.55594149	    -27.65299999	    -34.18400000	     -0.53168996	      7.65299997	     26.93900001	     34.89800000	      0.00018223	      0.00007289	      0.00036446	      0.00023325	      0.00069976	      0.00039362	      0.00004241	     -0.00007788	     -0.00009345
      1.80000000	     -4.37889699	      1.85469409	     -1.85469409	      4.37889699	     -0.88663757	      7.16549293	      3.22083976	     -3.22083976	     -7.16549293	      0.88663757	     44.37995300	     18.09457511	    -44.37995300	     38.41606529	     90.20343348	     32.79199415	      0.27953277	     -0.21635412	     18.07156726	     -6.19808906	      3.36700001	     23.55724279	    -27.65299999	    -34.18400000	     -0.52057037	      7.65299997	     26.93900001	     34.89800000	      0.00018216	      0.00007286	      0.00036432	      0.00023316	      0.00069949	      0.00039347	      0.00004241	     -0.00007788	     -0.00009345
      1.81000000	     -4.36423096	      1.84848225	     -1.84848225	      4.36423096	     -0.88366799	      7.14149389	      3.21005236	     -3.21005236	     -7.14149389	      0.88366799	     44.36725941	     18.03397181	    -44.36725941	     38.32079768	     90.28716137	     33.37728266	      0.28319184	     -0.21489250	     18.25953618	     -6.15621667	      3.36700001	     23.59003389	    -27.65299999	    -34.18400000	      0.25756801	      7.65299997	     26.93900001	     34.89800000	      0.00018119	      0.00007248	      0.00036239	      0.00023193	      0.00069578	      0.00039138	      0.00004241	     -0.00007788	     -0.00009345
      1.82000000	     -4.35021818	      1.84254710	     -1.84254710	      4.35021818	     -0.88083069	      7.11856380	      3.19974544	     -3.19974544	     -7.11856380	      0.88083069	     44.47764353	     17.97606787	    -44.47764353	     38.34257459	     90.36255669	     33.81815549	      0.28695767	     -0.21911246	     18.45167249	     -6.27710966	      3.36700001	     23.61332603	    -27.65299999	    -34.18400000	      0.74319687	      7.65299997	     26.93900001	     34.89800000	      0.00018398	      0.00007359	      0.00036796	      0.00023549	      0.00070648	      0.00039739	      0.00004241	     -0.00007788	     -0.00009345
      1.83000000	     -4.38037010	      1.85531803	     -1.85531803	      4.38037010	     -0.88693584	      7.16790349	      3.22192329	     -3.22192329	     -7.16790349	      0.88693584	     44.43270072	     18.10066234	    -44.43270072	     38.39674944	     90.38011784	     33.87078131	      0.28767171	     -0.21655209	     18.48794809	     -6.20376031	      3.36700001	     23.61729762	    -27.65299999	    -34.18400000	      0.70840289	      7.65299997	     26.93900001	     34.89800000	      0.00018229	      0.00007292	      0.00036458	      0.00023333	      0.00070000	      0.00039375	      0.00004241	     -0.00007788	     -0.00009345
      1.84000000	     -4.34733962	      1.84132788	     -1.84132788	      4.34733962	     -0.88024784	      7.11385342	      3.19762815	     -3.19762815	     -7.11385342	      0.88024784	     45.49148948	     17.96417303	    -45.49148948	     37.84625899	     90.38470424	     34.59689359	      0.25922911	     -0.20657216	     17.00580192	     -5.91785638	      3.36700001	     23.60499109	    -27.65299999	    -34.18400000	      8.44855002	      7.65299997	     26.93900001	     34.89800000	      0.00017562	      0.00007025	      0.00035123	      0.00022479	      0.00067437	      0.00037933	      0.00004241	     -0.00007788	     -0.00009345
      1.85000000	     -4.35245600	      1.84349494	     -1.84349494	      4.35245600	     -0.88128380	      7.12222571	      3.20139144	     -3.20139144	     -7.12222571	      0.88128380	     45.51360112	     17.98531506	    -45.51360112	     37.89256276	     90.39475215	     34.61252437	      0.25914246	     -0.20627786	     17.00115378	     -5.90942538	      3.36700001	     23.60553388	    -27.65299999	    -34.18400000	      8.45991834	      7.65299997	     26.93900001	     34.89800000	      0.00017542	      0.00007017	      0.00035083	      0.00022453	      0.00067360	      0.00037890	      0.00004241	     -0.00007788	     -0.00009345
      1.86000000	     -4.35945868	      1.84646094	     -1.84646094	      4.35945868	     -0.88270170	      7.13368467	      3.20654217	     -3.20654217	     -7.13368467	      0.88270170	     44.80967380	     18.01425168	    -44.80967380	     38.19322718	     90.54873164	     34.50568926	      0.27133259	     -0.21922245	     17.64580139	     -6.28026061	      3.36700001	     23.58058610	    -27.65299999	    -34.18400000	      8.43162141	      7.65299997	     26.93900001	     34.89800000	      0.00018405	      0.00007362	      0.00036810	      0.00023558	      0.00070675	      0.00039755	      0.00004241	     -0.00007788	     -0.00009345
      1.87000000	     -4.35335190	      1.84387440	     -1.84387440	      4.35335190	     -0.88146521	      7.12369174	      3.20205041	     -3.20205041	     -7.12369174	      0.88146521	     44.80795861	     17.98901713	    -44.80795861	     38.21244774	     90.57908972	     34.50797697	      0.27129826	     -0.21934814	     17.64398096	     -6.28386126	      3.36700001	     23.58032350	    -27.65299999	    -34.18400000	      8.43704321	      7.65299997	     26.93900001	     34.89800000	      0.00018413	      0.00007365	      0.00036826	      0.00023569	      0.00070706	      0.00039772	      0.00004241	     -0.00007788	     -0.00009345
